<?xml version="1.0" encoding="utf-8"?>
<!-- Generator: Adobe Illustrator 21.1.0, SVG Export Plug-In . SVG Version: 6.00 Build 0)  -->
<svg version="1.1" id="Layer_1" xmlns="http://www.w3.org/2000/svg" xmlns:xlink="http://www.w3.org/1999/xlink" x="0px" y="0px"
	 width="86px" height="52px" viewBox="0 0 86 52" style="enable-background:new 0 0 86 52;" xml:space="preserve">
<style type="text/css">
	.st0{fill:#FFFFFF;}
	.st1{fill:#F7A826;}
	.st2{fill:#ED1C2E;}
	.st3{fill:none;stroke:#FFFFFF;stroke-width:0.216;stroke-miterlimit:2.6131;}
	.st4{fill:#FCB331;}
</style>
<path class="st0" d="M84,52H2c-1.1,0-2-0.9-2-2V2c0-1.1,0.9-2,2-2h82c1.1,0,2,0.9,2,2v48C86,51.1,85.1,52,84,52z"/>
<polygon class="st1" points="55.3,44 56.2,44 57.2,43.9 58,43.8 58.9,43.6 59.8,43.4 60.7,43.2 61.5,42.9 62.3,42.6 63.1,42.2 
	63.9,41.8 64.6,41.4 65.4,40.9 66.1,40.4 66.7,39.9 67.4,39.3 68,38.7 68.6,38.1 69.2,37.4 69.7,36.7 70.2,36.1 70.7,35.3 
	71.1,34.6 71.5,33.8 71.9,33 72.2,32.2 72.5,31.3 72.7,30.5 72.9,29.6 73.1,28.7 73.2,27.8 73.3,26.9 73.3,26 73.3,25 73.2,24.1 
	73.1,23.2 72.9,22.4 72.7,21.5 72.5,20.6 72.2,19.8 71.9,19 71.5,18.2 71.1,17.4 70.7,16.7 70.2,15.9 69.7,15.2 69.2,14.5 
	68.6,13.9 68,13.3 67.4,12.7 66.7,12.1 66.1,11.6 65.4,11.1 64.6,10.6 63.9,10.2 63.1,9.8 62.3,9.4 61.5,9.1 60.7,8.8 59.8,8.6 
	58.9,8.4 58,8.2 57.2,8.1 56.2,8 55.3,8 54.4,8 53.5,8.1 52.6,8.2 51.7,8.4 50.8,8.6 50,8.8 49.1,9.1 48.3,9.4 47.5,9.8 46.8,10.2 
	46,10.6 45.3,11.1 44.6,11.6 43.9,12.1 43.3,12.7 42.6,13.3 42,13.9 41.5,14.5 40.9,15.2 40.4,15.9 40,16.7 39.6,17.4 39.2,18.2 
	38.8,19 38.5,19.8 38.2,20.6 38,21.5 37.8,22.4 37.6,23.2 37.5,24.1 37.4,25 37.4,26 37.4,26.9 37.5,27.8 37.6,28.7 37.8,29.6 
	38,30.5 38.2,31.3 38.5,32.2 38.8,33 39.2,33.8 39.6,34.6 40,35.3 40.4,36.1 40.9,36.7 41.5,37.4 42,38.1 42.6,38.7 43.3,39.3 
	43.9,39.9 44.6,40.4 45.3,40.9 46,41.4 46.8,41.8 47.5,42.2 48.3,42.6 49.1,42.9 50,43.2 50.8,43.4 51.7,43.6 52.6,43.8 53.5,43.9 
	54.4,44 "/>
<polygon class="st2" points="31.3,44 32.2,44 33.1,43.9 34,43.8 34.9,43.6 35.8,43.4 36.6,43.2 37.5,42.9 38.3,42.6 39.1,42.2 
	39.8,41.8 40.6,41.4 41.3,40.9 42,40.4 42.7,39.9 43.3,39.3 44,38.7 44.6,38.1 45.1,37.4 45.7,36.7 46.2,36.1 46.6,35.3 47,34.6 
	47.4,33.8 47.8,33 48.1,32.2 48.4,31.3 48.6,30.5 48.8,29.6 49,28.7 49.1,27.8 49.2,26.9 49.2,26 49.2,25 49.1,24.1 49,23.2 
	48.8,22.4 48.6,21.5 48.4,20.6 48.1,19.8 47.8,19 47.4,18.2 47,17.4 46.6,16.7 46.2,15.9 45.7,15.2 45.1,14.5 44.6,13.9 44,13.3 
	43.3,12.7 42.7,12.1 42,11.6 41.3,11.1 40.6,10.6 39.8,10.2 39.1,9.8 38.3,9.4 37.5,9.1 36.6,8.8 35.8,8.6 34.9,8.4 34,8.2 
	33.1,8.1 32.2,8 31.3,8 30.4,8 29.4,8.1 28.6,8.2 27.7,8.4 26.8,8.6 25.9,8.8 25.1,9.1 24.3,9.4 23.5,9.8 22.7,10.2 22,10.6 
	21.2,11.1 20.5,11.6 19.9,12.1 19.2,12.7 18.6,13.3 18,13.9 17.4,14.5 16.9,15.2 16.4,15.9 15.9,16.7 15.5,17.4 15.1,18.2 14.7,19 
	14.4,19.8 14.1,20.6 13.9,21.5 13.7,22.4 13.5,23.2 13.4,24.1 13.3,25 13.3,26 13.3,26.9 13.4,27.8 13.5,28.7 13.7,29.6 13.9,30.5 
	14.1,31.3 14.4,32.2 14.7,33 15.1,33.8 15.5,34.6 15.9,35.3 16.4,36.1 16.9,36.7 17.4,37.4 18,38.1 18.6,38.7 19.2,39.3 19.9,39.9 
	20.5,40.4 21.2,40.9 22,41.4 22.7,41.8 23.5,42.2 24.3,42.6 25.1,42.9 25.9,43.2 26.8,43.4 27.7,43.6 28.6,43.8 29.4,43.9 30.4,44 
	"/>
<polygon class="st1" points="41.2,15 50.7,15 50.7,14 42,14 "/>
<polygon class="st1" points="39.8,17 50.7,17 50.7,16 40.4,16 "/>
<polygon class="st1" points="38.7,19 50.7,19 50.7,18 39.1,18 "/>
<polygon class="st1" points="38,21 50.7,21 50.7,20 38.3,20 "/>
<polygon class="st1" points="38.4,32 50.8,32 50.8,31 38.1,31 "/>
<polygon class="st1" points="39.3,34 50.8,34 50.8,33 38.9,33 "/>
<polygon class="st1" points="40.6,36 50.8,36 50.8,35 40,35 "/>
<polygon class="st1" points="42.4,38 50.8,38 50.8,37 41.5,37 "/>
<polygon class="st1" points="37.5,23 50.7,23 50.7,22 37.7,22 "/>
<polygon class="st1" points="45.6,30 50.6,30 50.6,29 45.8,29 "/>
<polygon class="st1" points="46,28 50.6,28 50.6,27 46.2,27 "/>
<polygon class="st1" points="37.2,27 38.5,27 38.5,28 37.3,28 "/>
<polygon class="st0" points="34.8,25.4 34.7,25.4 34.6,25.4 34.5,25.4 34.4,25.4 34.4,25.4 34.3,25.3 34.2,25.3 34.1,25.3 34,25.3 
	33.9,25.3 33.8,25.3 33.7,25.3 33.6,25.3 33.5,25.3 33.3,25.3 33.1,25.3 33,25.3 32.9,25.4 32.8,25.4 32.7,25.4 32.6,25.5 
	32.5,25.5 32.5,25.6 32.4,25.6 32.4,25.7 32.4,25.8 32.3,25.8 32.3,25.9 32.4,26 32.4,26.1 32.4,26.2 32.5,26.2 32.6,26.4 
	32.8,26.4 32.9,26.5 33.1,26.6 33.3,26.7 33.5,26.7 33.7,26.8 33.9,26.9 34.1,27 34.2,27.1 34.4,27.2 34.5,27.4 34.6,27.7 34.7,28 
	34.7,28.3 34.7,28.7 34.6,28.9 34.6,29.2 34.5,29.4 34.3,29.6 34.2,29.8 34.1,29.9 33.9,30.1 33.7,30.2 33.5,30.3 33.3,30.4 
	33.1,30.4 32.9,30.5 32.7,30.5 32.5,30.5 32.3,30.5 32.1,30.6 31.8,30.6 31.6,30.5 31.4,30.5 31.2,30.5 31,30.5 30.8,30.5 
	30.7,30.5 30.5,30.5 30.4,30.5 30.3,30.4 30.2,30.4 30.1,30.4 30,30.4 29.9,30.3 29.8,30.3 29.7,30.3 30,28.9 30,28.9 30.1,28.9 
	30.2,29 30.3,29 30.4,29 30.5,29.1 30.6,29.1 30.8,29.1 30.9,29.1 31.1,29.2 31.2,29.2 31.4,29.2 31.6,29.2 31.8,29.2 31.9,29.2 
	32.1,29.2 32.3,29.2 32.4,29.1 32.5,29 32.6,29 32.7,28.9 32.7,28.8 32.8,28.7 32.8,28.6 32.8,28.4 32.8,28.3 32.6,28.1 32.5,28 
	32.3,28 32.1,27.9 31.9,27.8 31.6,27.7 31.4,27.6 31.1,27.4 30.9,27.3 30.7,27.1 30.6,26.9 30.5,26.6 30.4,26.3 30.4,25.9 
	30.5,25.6 30.5,25.4 30.6,25.2 30.6,25 30.7,24.8 30.8,24.7 31,24.5 31.1,24.4 31.3,24.3 31.5,24.2 31.7,24.1 32,24 32.2,24 
	32.5,23.9 32.8,23.9 33.2,23.9 33.4,23.9 33.6,23.9 33.8,23.9 34,23.9 34.2,23.9 34.3,23.9 34.4,24 34.5,24 34.6,24 34.7,24 
	34.8,24 34.9,24 34.9,24 35,24 35,24 35.1,24 "/>
<polyline class="st3" points="34.8,25.4 34.8,25.4 34.7,25.4 34.6,25.4 34.5,25.4 34.4,25.4 34.4,25.4 34.3,25.3 34.2,25.3 
	34.1,25.3 34,25.3 33.9,25.3 33.8,25.3 33.7,25.3 33.6,25.3 33.5,25.3 33.3,25.3 33.1,25.3 33.1,25.3 33,25.3 32.9,25.4 32.8,25.4 
	32.7,25.4 32.6,25.5 32.5,25.5 32.5,25.6 32.4,25.6 32.4,25.7 32.4,25.8 32.3,25.8 32.3,25.9 32.4,26 32.4,26.1 32.4,26.2 
	32.5,26.2 32.5,26.2 32.6,26.4 32.8,26.4 32.9,26.5 33.1,26.6 33.3,26.7 33.5,26.7 33.7,26.8 33.9,26.9 34.1,27 34.2,27.1 
	34.4,27.2 34.5,27.4 34.6,27.7 34.7,28 34.7,28.3 34.7,28.7 34.7,28.7 34.6,28.9 34.6,29.2 34.5,29.4 34.3,29.6 34.2,29.8 
	34.1,29.9 33.9,30.1 33.7,30.2 33.5,30.3 33.3,30.4 33.1,30.4 32.9,30.5 32.7,30.5 32.5,30.5 32.3,30.5 32.1,30.6 32.1,30.6 
	31.8,30.6 31.6,30.5 31.4,30.5 31.2,30.5 31,30.5 30.8,30.5 30.7,30.5 30.5,30.5 30.4,30.5 30.3,30.4 30.2,30.4 30.1,30.4 30,30.4 
	29.9,30.3 29.8,30.3 29.7,30.3 30,28.9 30,28.9 30,28.9 30.1,28.9 30.2,29 30.3,29 30.4,29 30.5,29.1 30.6,29.1 30.8,29.1 
	30.9,29.1 31.1,29.2 31.2,29.2 31.4,29.2 31.6,29.2 31.8,29.2 31.9,29.2 32.1,29.2 32.1,29.2 32.3,29.2 32.4,29.1 32.5,29 32.6,29 
	32.7,28.9 32.7,28.8 32.8,28.7 32.8,28.6 32.8,28.6 32.8,28.4 32.8,28.3 32.6,28.1 32.5,28 32.3,28 32.1,27.9 31.9,27.8 31.6,27.7 
	31.4,27.6 31.1,27.4 30.9,27.3 30.7,27.1 30.6,26.9 30.5,26.6 30.4,26.3 30.4,25.9 30.4,25.9 30.5,25.6 30.5,25.4 30.6,25.2 
	30.6,25 30.7,24.8 30.8,24.7 31,24.5 31.1,24.4 31.3,24.3 31.5,24.2 31.7,24.1 32,24 32.2,24 32.5,23.9 32.8,23.9 33.2,23.9 
	33.2,23.9 33.4,23.9 33.6,23.9 33.8,23.9 34,23.9 34.2,23.9 34.3,23.9 34.4,24 34.5,24 34.6,24 34.7,24 34.8,24 34.9,24 34.9,24 
	35,24 35,24 35.1,24 34.8,25.4 "/>
<polygon class="st0" points="36.2,22.6 37.9,22.6 37.6,24 38.6,24 38.4,25.4 37.4,25.4 36.8,28.7 36.8,28.9 36.8,29 36.9,29 
	36.9,29.1 37,29.2 37.2,29.2 37.3,29.2 37.5,29.2 37.6,29.2 37.7,29.2 37.8,29.2 37.9,29.2 38,29.1 38,29.1 38.1,29.1 38.1,29.1 
	37.9,30.2 37.8,30.3 37.8,30.3 37.8,30.3 37.7,30.3 37.7,30.4 37.6,30.4 37.6,30.4 37.5,30.4 37.5,30.4 37.4,30.4 37.3,30.5 
	37.3,30.5 37.2,30.5 37.1,30.5 37,30.5 36.9,30.5 36.4,30.5 36.2,30.5 36,30.5 35.8,30.4 35.6,30.4 35.5,30.3 35.3,30.3 35.2,30.2 
	35.2,30.1 35.1,30 35.1,29.9 35,29.8 35,29.7 35,29.6 35,29.5 35,29.3 35,29.2 "/>
<polyline class="st3" points="36.2,22.6 37.9,22.6 37.6,24 38.6,24 38.4,25.4 37.4,25.4 36.8,28.7 36.8,28.7 36.8,28.9 36.8,29 
	36.9,29 36.9,29.1 37,29.2 37.2,29.2 37.3,29.2 37.5,29.2 37.5,29.2 37.6,29.2 37.7,29.2 37.8,29.2 37.9,29.2 38,29.1 38,29.1 
	38.1,29.1 38.1,29.1 37.9,30.2 37.9,30.2 37.8,30.3 37.8,30.3 37.8,30.3 37.7,30.3 37.7,30.4 37.6,30.4 37.6,30.4 37.5,30.4 
	37.5,30.4 37.4,30.4 37.3,30.5 37.3,30.5 37.2,30.5 37.1,30.5 37,30.5 36.9,30.5 36.4,30.5 36.4,30.5 36.2,30.5 36,30.5 35.8,30.4 
	35.6,30.4 35.5,30.3 35.3,30.3 35.2,30.2 35.2,30.1 35.1,30 35.1,29.9 35,29.8 35,29.7 35,29.6 35,29.5 35,29.3 35,29.2 36.2,22.6 
	"/>
<polygon class="st0" points="40,27.7 40,27.8 40,27.9 40,28 40,28.1 40,28.2 40.1,28.4 40.1,28.5 40.2,28.6 40.3,28.7 40.4,28.8 
	40.5,28.9 40.6,28.9 40.7,29 40.8,29 41,29.1 41.1,29.1 41.2,29.1 41.4,29.2 41.5,29.2 41.7,29.2 41.9,29.2 42,29.2 42.2,29.2 
	42.3,29.2 42.5,29.1 42.7,29.1 42.8,29.1 43,29 43.2,28.9 43.4,28.9 43.5,28.8 43.7,28.7 43.5,30.2 43.4,30.2 43.3,30.3 43.2,30.3 
	43.1,30.3 43,30.4 42.9,30.4 42.8,30.4 42.7,30.4 42.6,30.5 42.4,30.5 42.3,30.5 42.2,30.5 42,30.5 41.9,30.5 41.7,30.5 41.5,30.5 
	41.2,30.5 40.9,30.5 40.6,30.4 40.3,30.4 40,30.3 39.7,30.2 39.4,30 39.2,29.8 38.9,29.6 38.7,29.4 38.6,29.1 38.4,28.8 38.3,28.4 
	38.2,28 38.2,27.6 38.3,27.1 38.3,26.9 38.3,26.7 38.3,26.4 38.4,26.2 38.5,25.9 38.6,25.6 38.8,25.4 38.9,25.1 39.1,24.9 
	39.3,24.6 39.6,24.4 39.9,24.3 40.3,24.1 40.7,24 41.1,23.9 41.6,23.9 41.8,23.9 42.1,23.9 42.3,24 42.6,24 42.8,24.1 43.1,24.2 
	43.3,24.4 43.5,24.5 43.7,24.8 43.8,25 43.9,25.3 44,25.6 44.1,26 44.1,26.4 44,26.8 43.9,27.3 43.9,27.7 39.5,27.7 39.8,26.5 
	42.4,26.5 42.4,26.4 42.4,26.2 42.4,26.1 42.4,26 42.4,25.8 42.3,25.8 42.2,25.7 42.2,25.6 42.1,25.5 42,25.4 41.9,25.4 41.8,25.3 
	41.7,25.3 41.7,25.3 41.6,25.3 41.4,25.2 41.3,25.3 41.2,25.3 41.1,25.3 41,25.3 40.9,25.4 40.8,25.4 40.7,25.5 40.7,25.6 
	40.6,25.7 40.5,25.8 40.4,25.8 40.4,25.9 40.3,26.1 40.3,26.2 40.3,26.3 40.2,26.4 "/>
<polyline class="st3" points="40,27.7 40,27.7 40,27.8 40,27.9 40,28 40,28.1 40,28.2 40.1,28.4 40.1,28.5 40.2,28.6 40.3,28.7 
	40.4,28.8 40.5,28.9 40.6,28.9 40.7,29 40.8,29 41,29.1 41.1,29.1 41.1,29.1 41.2,29.1 41.4,29.2 41.5,29.2 41.7,29.2 41.9,29.2 
	42,29.2 42.2,29.2 42.3,29.2 42.5,29.1 42.7,29.1 42.8,29.1 43,29 43.2,28.9 43.4,28.9 43.5,28.8 43.7,28.7 43.5,30.2 43.5,30.2 
	43.4,30.2 43.3,30.3 43.2,30.3 43.1,30.3 43,30.4 42.9,30.4 42.8,30.4 42.7,30.4 42.6,30.5 42.4,30.5 42.3,30.5 42.2,30.5 42,30.5 
	41.9,30.5 41.7,30.5 41.5,30.5 41.5,30.5 41.2,30.5 40.9,30.5 40.6,30.4 40.3,30.4 40,30.3 39.7,30.2 39.4,30 39.2,29.8 38.9,29.6 
	38.7,29.4 38.6,29.1 38.4,28.8 38.3,28.4 38.2,28 38.2,27.6 38.3,27.1 38.3,27.1 38.3,26.9 38.3,26.7 38.3,26.4 38.4,26.2 
	38.5,25.9 38.6,25.6 38.8,25.4 38.9,25.1 39.1,24.9 39.3,24.6 39.6,24.4 39.9,24.3 40.3,24.1 40.7,24 41.1,23.9 41.6,23.9 
	41.6,23.9 41.8,23.9 42.1,23.9 42.3,24 42.6,24 42.8,24.1 43.1,24.2 43.3,24.4 43.5,24.5 43.7,24.8 43.8,25 43.9,25.3 44,25.6 
	44.1,26 44.1,26.4 44,26.8 43.9,27.3 43.9,27.7 39.5,27.7 39.8,26.5 42.4,26.5 42.4,26.5 42.4,26.4 42.4,26.2 42.4,26.1 42.4,26 
	42.4,25.8 42.3,25.8 42.2,25.7 42.2,25.6 42.1,25.5 42,25.4 41.9,25.4 41.8,25.3 41.7,25.3 41.7,25.3 41.6,25.3 41.4,25.2 
	41.4,25.2 41.3,25.3 41.2,25.3 41.1,25.3 41,25.3 40.9,25.4 40.8,25.4 40.7,25.5 40.7,25.6 40.6,25.7 40.5,25.8 40.4,25.8 
	40.4,25.9 40.3,26.1 40.3,26.2 40.3,26.3 40.2,26.4 40,27.7 "/>
<polygon class="st0" points="54.4,24.4 54.3,24.3 54.3,24.3 54.2,24.3 54.1,24.2 54,24.2 53.9,24.1 53.8,24.1 53.7,24.1 53.6,24 
	53.5,24 53.3,24 53.2,24 53.1,24 52.9,24 52.8,24 52.6,24 52.5,24 52.3,24 52.1,24 52,24 51.8,24.1 51.6,24.1 51.5,24.2 51.3,24.3 
	51.1,24.4 51,24.6 50.8,24.8 50.7,25 50.6,25.3 50.4,25.6 50.3,25.9 50.2,26.3 50.2,26.6 50.2,26.8 50.1,27 50.1,27.2 50.2,27.4 
	50.2,27.6 50.3,27.8 50.3,28 50.4,28.1 50.5,28.3 50.7,28.4 50.8,28.5 51,28.6 51.1,28.7 51.4,28.8 51.6,28.9 51.7,28.9 51.8,28.9 
	51.9,28.9 52,28.9 52.1,28.9 52.3,28.9 52.4,28.9 52.6,28.9 52.7,28.9 52.9,28.9 53,28.8 53.2,28.8 53.3,28.7 53.5,28.6 53.6,28.5 
	53.7,28.4 53.5,30.1 53.4,30.1 53.4,30.1 53.3,30.2 53.3,30.2 53.2,30.3 53.1,30.3 53,30.3 52.9,30.4 52.8,30.4 52.6,30.4 
	52.4,30.5 52.2,30.5 52,30.5 51.7,30.5 51.4,30.5 51.1,30.5 50.8,30.5 50.5,30.4 50.2,30.3 50,30.2 49.7,30 49.4,29.8 49.2,29.6 
	49,29.4 48.8,29.1 48.6,28.8 48.5,28.5 48.3,28.1 48.3,27.7 48.3,27.3 48.3,26.8 48.3,26.3 48.4,26.1 48.4,25.8 48.5,25.6 
	48.6,25.3 48.6,25.1 48.7,24.9 48.8,24.7 48.9,24.5 49,24.4 49,24.2 49.1,24 49.3,23.8 49.4,23.7 49.5,23.5 49.6,23.4 49.7,23.3 
	49.9,23.2 50,23.1 50.2,22.9 50.3,22.8 50.5,22.8 50.6,22.7 50.8,22.6 51,22.5 51.2,22.5 51.4,22.4 51.5,22.4 51.7,22.3 52,22.3 
	52.2,22.3 52.4,22.3 52.6,22.3 52.8,22.3 53,22.3 53.2,22.3 53.4,22.3 53.5,22.4 53.7,22.4 53.9,22.4 54,22.5 54.2,22.5 54.3,22.5 
	54.4,22.6 54.5,22.6 54.6,22.6 54.6,22.7 54.7,22.7 54.7,22.7 "/>
<polyline class="st3" points="54.4,24.4 54.4,24.4 54.3,24.3 54.3,24.3 54.2,24.3 54.1,24.2 54,24.2 53.9,24.1 53.8,24.1 53.7,24.1 
	53.6,24 53.5,24 53.3,24 53.2,24 53.1,24 52.9,24 52.8,24 52.6,24 52.6,24 52.5,24 52.3,24 52.1,24 52,24 51.8,24.1 51.6,24.1 
	51.5,24.2 51.3,24.3 51.1,24.4 51,24.6 50.8,24.8 50.7,25 50.6,25.3 50.4,25.6 50.3,25.9 50.2,26.3 50.2,26.3 50.2,26.6 50.2,26.8 
	50.1,27 50.1,27.2 50.2,27.4 50.2,27.6 50.3,27.8 50.3,28 50.4,28.1 50.5,28.3 50.7,28.4 50.8,28.5 51,28.6 51.1,28.7 51.4,28.8 
	51.6,28.9 51.6,28.9 51.7,28.9 51.8,28.9 51.9,28.9 52,28.9 52.1,28.9 52.3,28.9 52.4,28.9 52.6,28.9 52.7,28.9 52.9,28.9 53,28.8 
	53.2,28.8 53.3,28.7 53.5,28.6 53.6,28.5 53.7,28.4 53.5,30.1 53.5,30.1 53.4,30.1 53.4,30.1 53.3,30.2 53.3,30.2 53.2,30.3 
	53.1,30.3 53,30.3 52.9,30.4 52.8,30.4 52.6,30.4 52.4,30.5 52.2,30.5 52,30.5 51.7,30.5 51.4,30.5 51.1,30.5 51.1,30.5 50.8,30.5 
	50.5,30.4 50.2,30.3 50,30.2 49.7,30 49.4,29.8 49.2,29.6 49,29.4 48.8,29.1 48.6,28.8 48.5,28.5 48.3,28.1 48.3,27.7 48.3,27.3 
	48.3,26.8 48.3,26.3 48.3,26.3 48.4,26.1 48.4,25.8 48.5,25.6 48.6,25.3 48.6,25.1 48.7,24.9 48.8,24.7 48.9,24.5 49,24.4 49,24.2 
	49.1,24 49.3,23.8 49.4,23.7 49.5,23.5 49.6,23.4 49.7,23.3 49.9,23.2 50,23.1 50.2,22.9 50.3,22.8 50.5,22.8 50.6,22.7 50.8,22.6 
	51,22.5 51.2,22.5 51.4,22.4 51.5,22.4 51.7,22.3 52,22.3 52.2,22.3 52.4,22.3 52.6,22.3 52.6,22.3 52.8,22.3 53,22.3 53.2,22.3 
	53.4,22.3 53.5,22.4 53.7,22.4 53.9,22.4 54,22.5 54.2,22.5 54.3,22.5 54.4,22.6 54.5,22.6 54.6,22.6 54.6,22.7 54.7,22.7 
	54.7,22.7 54.4,24.4 "/>
<polygon class="st0" points="69.3,30.5 67.6,30.5 67.8,29.8 67.8,29.8 67.7,29.9 67.6,30 67.5,30.1 67.4,30.2 67.3,30.3 67.2,30.3 
	67,30.4 66.9,30.4 66.8,30.5 66.7,30.5 66.6,30.6 66.5,30.6 66.3,30.6 66.2,30.6 66.1,30.6 66,30.6 65.7,30.6 65.4,30.5 65.1,30.4 
	64.9,30.3 64.6,30.1 64.5,29.9 64.3,29.7 64.1,29.4 64,29.1 63.9,28.9 63.8,28.6 63.8,28.2 63.8,27.9 63.8,27.6 63.8,27.3 63.9,27 
	64,26.7 64.1,26.3 64.2,26 64.4,25.7 64.5,25.4 64.7,25.2 64.9,25 65.1,24.8 65.3,24.6 65.5,24.4 65.8,24.3 66,24.2 66.2,24.1 
	66.5,24.1 66.7,24 66.9,24 67.1,24 67.3,24 67.5,24.1 67.6,24.1 67.7,24.2 67.9,24.2 68,24.3 68.1,24.4 68.2,24.4 68.3,24.5 
	68.4,24.6 68.4,24.7 68.5,24.7 68.6,24.8 68.6,24.9 68.6,25 68.6,25 69,22.6 70.7,22.6 "/>
<polyline class="st3" points="69.3,30.5 67.6,30.5 67.8,29.8 67.8,29.8 67.8,29.8 67.7,29.9 67.6,30 67.5,30.1 67.4,30.2 67.3,30.3 
	67.2,30.3 67,30.4 66.9,30.4 66.8,30.5 66.7,30.5 66.6,30.6 66.5,30.6 66.3,30.6 66.2,30.6 66.1,30.6 66,30.6 66,30.6 65.7,30.6 
	65.4,30.5 65.1,30.4 64.9,30.3 64.6,30.1 64.5,29.9 64.3,29.7 64.1,29.4 64,29.1 63.9,28.9 63.8,28.6 63.8,28.2 63.8,27.9 
	63.8,27.6 63.8,27.3 63.9,27 63.9,27 64,26.7 64.1,26.3 64.2,26 64.4,25.7 64.5,25.4 64.7,25.2 64.9,25 65.1,24.8 65.3,24.6 
	65.5,24.4 65.8,24.3 66,24.2 66.2,24.1 66.5,24.1 66.7,24 66.9,24 66.9,24 67.1,24 67.3,24 67.5,24.1 67.6,24.1 67.7,24.2 
	67.9,24.2 68,24.3 68.1,24.4 68.2,24.4 68.3,24.5 68.4,24.6 68.4,24.7 68.5,24.7 68.6,24.8 68.6,24.9 68.6,25 68.6,25 69,22.6 
	70.7,22.6 69.3,30.5 "/>
<polygon class="st4" points="66.6,29 66.8,29 66.9,29 67.1,28.9 67.2,28.9 67.3,28.8 67.5,28.7 67.6,28.6 67.7,28.5 67.8,28.4 
	67.8,28.3 67.9,28.1 68,28 68,27.8 68.1,27.7 68.1,27.5 68.2,27.3 68.2,27.2 68.2,27 68.2,26.8 68.2,26.7 68.2,26.5 68.2,26.3 
	68.1,26.2 68.1,26.1 68,25.9 68,25.8 67.9,25.7 67.8,25.6 67.7,25.6 67.6,25.5 67.5,25.5 67.3,25.5 67.2,25.5 67,25.5 66.9,25.6 
	66.7,25.6 66.6,25.7 66.5,25.8 66.4,25.9 66.3,26 66.2,26.2 66.1,26.3 66,26.4 66,26.6 65.9,26.8 65.9,26.9 65.8,27.1 65.8,27.3 
	65.7,27.6 65.8,27.8 65.8,28.1 65.9,28.4 66,28.7 66.2,28.9 66.3,29 "/>
<polygon class="st0" points="29.4,29.2 29.2,30.5 27.6,30.5 27.7,30.3 27.7,30 27.7,29.9 27.8,29.8 27.7,29.9 27.6,30 27.5,30.1 
	27.3,30.2 27.2,30.2 27,30.3 26.9,30.4 26.7,30.4 26.5,30.5 26.4,30.5 26.2,30.6 26,30.6 25.8,30.6 25.7,30.6 25.5,30.6 25.3,30.6 
	25.1,30.5 24.9,30.5 24.7,30.4 24.6,30.3 24.5,30.2 24.3,30.1 24.2,30 24.2,29.8 24.1,29.7 24,29.6 24,29.4 23.9,29.3 23.9,29.2 
	23.9,29 23.9,28.9 23.9,28.8 23.9,28.5 23.9,28.3 24,28.1 24.1,27.9 24.2,27.7 24.3,27.5 24.4,27.4 24.6,27.2 24.7,27.1 24.9,26.9 
	25.1,26.8 25.2,26.7 25.4,26.6 25.6,26.6 25.8,26.5 26,26.5 26.1,26.5 26.1,26.5 26.1,26.5 26.2,26.5 26.3,26.5 26.4,26.4 
	26.4,26.4 26.6,26.4 26.6,26.4 26.8,26.4 26.9,26.4 27,26.4 27.1,26.4 27.2,26.4 27.2,26.4 27.3,26.4 27.4,26.4 27.6,26.4 
	27.7,26.4 27.9,26.4 28,26.4 28,26.4 28.1,26.4 28.1,26.4 28.1,26.3 28.2,26.2 28.2,26.1 28.2,26 28.2,25.9 28.1,25.8 28.1,25.6 
	28,25.5 27.9,25.5 27.7,25.4 27.6,25.4 27.4,25.4 27.3,25.3 27.1,25.3 26.9,25.3 26.7,25.3 26.5,25.4 26.3,25.4 26.1,25.4 
	25.9,25.4 25.7,25.4 25.5,25.5 25.4,25.5 25.2,25.5 25.1,25.6 25,25.6 24.9,25.7 24.9,25.7 25.3,24.2 25.4,24.2 25.5,24.1 
	25.7,24.1 25.9,24 26,24 26.2,24 26.3,24 26.5,24 26.6,24 26.8,24 27,23.9 27.2,23.9 27.4,23.9 27.6,23.9 27.8,24 28,24 28.2,24 
	28.3,24 28.5,24 28.7,24.1 28.9,24.2 29.1,24.3 29.3,24.4 29.5,24.5 29.6,24.6 29.7,24.8 29.9,24.9 30,25.1 30,25.3 30,25.5 
	30,25.7 30,26 "/>
<polyline class="st3" points="29.4,29.2 29.2,30.5 27.6,30.5 27.6,30.5 27.7,30.3 27.7,30 27.7,29.9 27.8,29.8 27.8,29.8 27.7,29.9 
	27.6,30 27.5,30.1 27.3,30.2 27.2,30.2 27,30.3 26.9,30.4 26.7,30.4 26.5,30.5 26.4,30.5 26.2,30.6 26,30.6 25.8,30.6 25.7,30.6 
	25.5,30.6 25.3,30.6 25.3,30.6 25.1,30.5 24.9,30.5 24.7,30.4 24.6,30.3 24.5,30.2 24.3,30.1 24.2,30 24.2,29.8 24.1,29.7 24,29.6 
	24,29.4 23.9,29.3 23.9,29.2 23.9,29 23.9,28.9 23.9,28.8 23.9,28.8 23.9,28.5 23.9,28.3 24,28.1 24.1,27.9 24.2,27.7 24.3,27.5 
	24.4,27.4 24.6,27.2 24.7,27.1 24.9,26.9 25.1,26.8 25.2,26.7 25.4,26.6 25.6,26.6 25.8,26.5 26,26.5 26,26.5 26.1,26.5 26.1,26.5 
	26.1,26.5 26.2,26.5 26.3,26.5 26.4,26.4 26.4,26.4 26.6,26.4 26.6,26.4 26.8,26.4 26.9,26.4 27,26.4 27.1,26.4 27.2,26.4 
	27.2,26.4 27.3,26.4 27.3,26.4 27.4,26.4 27.6,26.4 27.7,26.4 27.9,26.4 28,26.4 28,26.4 28.1,26.4 28.1,26.4 28.1,26.4 28.1,26.3 
	28.2,26.2 28.2,26.1 28.2,26 28.2,26 28.2,25.9 28.1,25.8 28.1,25.6 28,25.5 27.9,25.5 27.7,25.4 27.6,25.4 27.4,25.4 27.4,25.4 
	27.3,25.3 27.1,25.3 26.9,25.3 26.7,25.3 26.5,25.4 26.3,25.4 26.1,25.4 25.9,25.4 25.7,25.4 25.5,25.5 25.4,25.5 25.2,25.5 
	25.1,25.6 25,25.6 24.9,25.7 24.9,25.7 25.3,24.2 25.3,24.2 25.4,24.2 25.5,24.1 25.7,24.1 25.9,24 26,24 26.2,24 26.3,24 26.5,24 
	26.6,24 26.8,24 27,23.9 27.2,23.9 27.4,23.9 27.6,23.9 27.8,24 28,24 28,24 28.2,24 28.3,24 28.5,24 28.7,24.1 28.9,24.2 
	29.1,24.3 29.3,24.4 29.5,24.5 29.6,24.6 29.7,24.8 29.9,24.9 30,25.1 30,25.3 30,25.5 30,25.7 30,26 29.4,29.2 "/>
<polygon class="st2" points="28,27.6 27.9,27.6 27.9,27.5 27.9,27.5 27.8,27.5 27.7,27.5 27.7,27.5 27.6,27.5 27.5,27.5 27.4,27.5 
	27.3,27.5 27.2,27.5 27.1,27.5 27,27.5 26.9,27.6 26.9,27.6 26.8,27.6 26.7,27.6 26.7,27.6 26.6,27.6 26.6,27.7 26.5,27.7 
	26.4,27.7 26.3,27.8 26.2,27.8 26.2,27.9 26.1,28 26,28 25.9,28.1 25.9,28.2 25.8,28.3 25.8,28.4 25.8,28.5 25.8,28.7 25.8,28.8 
	25.9,28.9 25.9,29 26,29.1 26.1,29.1 26.2,29.2 26.3,29.2 26.5,29.2 26.7,29.1 26.8,29.1 27,29.1 27.1,29 27.2,29 27.3,28.9 
	27.4,28.9 27.5,28.8 27.6,28.7 27.6,28.7 27.7,28.6 27.7,28.5 27.7,28.5 27.8,28.4 27.8,28.3 27.8,28.1 27.9,27.9 27.9,27.7 "/>
<polygon class="st0" points="16.7,30.5 15,30.5 16.4,22.6 19.3,22.6 19.5,27.3 21.5,22.6 24.5,22.6 23.1,30.5 21.4,30.5 22.5,24.6 
	22.4,24.6 20,30.5 18.1,30.5 18.1,30.3 18,29.6 18,28.7 17.9,27.6 17.9,26.5 17.8,25.5 17.8,24.9 17.8,24.6 17.7,24.6 17.7,24.6 
	17.7,24.6 17.7,24.6 "/>
<polyline class="st3" points="16.7,30.5 15,30.5 16.4,22.6 19.3,22.6 19.5,27.3 21.5,22.6 24.5,22.6 23.1,30.5 21.4,30.5 22.5,24.6 
	22.4,24.6 20,30.5 18.1,30.5 18.1,30.5 18.1,30.3 18,29.6 18,28.7 17.9,27.6 17.9,26.5 17.8,25.5 17.8,24.9 17.8,24.6 17.8,24.6 
	17.7,24.6 17.7,24.6 17.7,24.6 17.7,24.6 16.7,30.5 "/>
<polygon class="st0" points="59.5,29.2 59.2,30.5 57.7,30.5 57.7,30.3 57.7,30.1 57.7,29.9 57.7,29.8 57.6,29.9 57.6,30 57.4,30.1 
	57.3,30.2 57.2,30.3 57,30.3 56.9,30.4 56.7,30.4 56.6,30.5 56.4,30.6 56.2,30.6 56.1,30.6 55.9,30.6 55.7,30.6 55.6,30.6 
	55.4,30.6 55.2,30.5 55,30.5 54.8,30.4 54.7,30.3 54.5,30.2 54.4,30.1 54.3,30 54.2,29.8 54.2,29.7 54.1,29.6 54.1,29.4 54,29.3 
	54,29.2 54,29 54,28.9 54,28.8 54,28.5 54,28.3 54.1,28.1 54.2,27.9 54.2,27.7 54.4,27.5 54.5,27.4 54.6,27.2 54.8,27.1 54.9,26.9 
	55.1,26.8 55.3,26.7 55.5,26.6 55.7,26.6 55.9,26.5 56.1,26.5 56.1,26.5 56.1,26.5 56.2,26.5 56.2,26.5 56.3,26.5 56.4,26.4 
	56.5,26.4 56.6,26.4 56.7,26.4 56.8,26.4 56.9,26.4 57,26.4 57.1,26.4 57.2,26.4 57.3,26.4 57.3,26.4 57.5,26.4 57.6,26.4 
	57.8,26.4 57.9,26.4 58,26.4 58.1,26.4 58.2,26.4 58.2,26.4 58.2,26.3 58.2,26.2 58.3,26.1 58.3,26 58.2,25.9 58.2,25.8 58.1,25.6 
	58,25.5 57.9,25.5 57.8,25.4 57.6,25.4 57.5,25.4 57.3,25.3 57.2,25.3 57,25.3 56.8,25.3 56.6,25.4 56.4,25.4 56.2,25.4 56,25.4 
	55.8,25.4 55.6,25.5 55.5,25.5 55.3,25.5 55.2,25.6 55.1,25.6 55,25.7 54.9,25.7 55.4,24.2 55.5,24.2 55.6,24.1 55.8,24.1 55.9,24 
	56.1,24 56.2,24 56.4,24 56.6,24 56.7,24 56.9,24 57.1,23.9 57.3,23.9 57.4,23.9 57.6,23.9 57.8,24 58,24 58.2,24 58.4,24 58.6,24 
	58.8,24.1 59,24.2 59.2,24.3 59.3,24.4 59.5,24.5 59.7,24.6 59.8,24.8 59.9,24.9 60,25.1 60.1,25.3 60.1,25.5 60.1,25.7 60.1,26 "/>
<polygon class="st0" points="59.2,30.6 59.2,30.5 59.5,29.2 59.4,29.2 59.2,30.5 59.2,30.5 59.2,30.6 59.2,30.6 59.2,30.5 "/>
<polygon class="st0" points="57.6,30.5 57.7,30.6 59.2,30.6 59.2,30.5 57.7,30.5 57.7,30.5 57.6,30.5 57.6,30.6 57.7,30.6 "/>
<polygon class="st0" points="57.7,29.8 57.7,29.8 57.7,29.9 57.7,30.1 57.7,30.3 57.6,30.5 57.7,30.5 57.7,30.3 57.7,30.1 
	57.7,29.9 57.7,29.8 57.7,29.8 "/>
<polygon class="st0" points="55.4,30.6 55.4,30.6 55.6,30.6 55.7,30.7 55.9,30.7 56.1,30.6 56.2,30.6 56.4,30.6 56.6,30.5 
	56.8,30.5 56.9,30.4 57.1,30.3 57.2,30.3 57.3,30.2 57.5,30.1 57.6,30 57.7,29.9 57.7,29.8 57.7,29.8 57.6,29.9 57.5,30 57.4,30.1 
	57.3,30.1 57.2,30.2 57,30.3 56.9,30.3 56.7,30.4 56.6,30.5 56.4,30.5 56.2,30.5 56.1,30.6 55.9,30.6 55.7,30.6 55.6,30.6 
	55.4,30.5 55.4,30.5 "/>
<polygon class="st0" points="53.9,28.8 53.9,28.8 53.9,28.9 53.9,29 54,29.2 54,29.3 54,29.5 54.1,29.6 54.1,29.7 54.2,29.9 
	54.3,30 54.4,30.1 54.5,30.2 54.6,30.3 54.8,30.4 55,30.5 55.2,30.6 55.4,30.6 55.4,30.5 55.2,30.5 55,30.4 54.8,30.3 54.7,30.3 
	54.5,30.2 54.4,30.1 54.3,29.9 54.3,29.8 54.2,29.7 54.1,29.6 54.1,29.4 54.1,29.3 54,29.2 54,29 54,28.9 54,28.8 54,28.8 "/>
<polygon class="st0" points="56.1,26.4 56.1,26.4 55.9,26.5 55.7,26.5 55.5,26.6 55.3,26.7 55.1,26.8 54.9,26.9 54.8,27 54.6,27.2 
	54.5,27.3 54.3,27.5 54.2,27.7 54.1,27.9 54,28.1 54,28.3 53.9,28.5 53.9,28.8 54,28.8 54,28.5 54.1,28.3 54.1,28.1 54.2,27.9 
	54.3,27.7 54.4,27.6 54.5,27.4 54.6,27.2 54.8,27.1 55,27 55.1,26.9 55.3,26.8 55.5,26.7 55.7,26.6 55.9,26.6 56.1,26.5 56.1,26.5 
	"/>
<polygon class="st0" points="57.3,26.3 57.3,26.3 57.3,26.3 57.2,26.3 57.1,26.3 57,26.3 56.9,26.4 56.8,26.4 56.7,26.4 56.6,26.4 
	56.5,26.4 56.4,26.4 56.3,26.4 56.2,26.4 56.2,26.4 56.1,26.4 56.1,26.4 56.1,26.4 56.1,26.5 56.1,26.5 56.2,26.5 56.2,26.5 
	56.2,26.5 56.3,26.5 56.4,26.5 56.5,26.5 56.6,26.5 56.7,26.4 56.8,26.4 56.9,26.4 57,26.4 57.1,26.4 57.2,26.4 57.3,26.4 
	57.3,26.4 57.3,26.4 "/>
<polygon class="st0" points="58.2,26.4 58.2,26.4 58.2,26.4 58.1,26.3 58,26.3 57.9,26.3 57.8,26.3 57.6,26.3 57.5,26.3 57.3,26.3 
	57.3,26.4 57.5,26.4 57.6,26.4 57.8,26.4 57.9,26.4 58,26.4 58.1,26.4 58.2,26.4 58.2,26.4 58.2,26.4 58.2,26.4 58.2,26.4 
	58.2,26.4 "/>
<polygon class="st0" points="58.2,26 58.2,26 58.2,26.1 58.2,26.2 58.2,26.3 58.2,26.4 58.2,26.4 58.3,26.4 58.3,26.2 58.3,26.1 
	58.3,26 58.3,26 "/>
<polygon class="st0" points="57.5,25.4 57.5,25.4 57.6,25.4 57.8,25.4 57.9,25.5 58,25.6 58.1,25.7 58.2,25.8 58.2,25.9 58.2,26 
	58.3,26 58.3,25.9 58.2,25.7 58.1,25.6 58,25.5 57.9,25.4 57.8,25.4 57.7,25.3 57.5,25.3 57.5,25.3 "/>
<polygon class="st0" points="54.9,25.7 55,25.7 55,25.7 55.1,25.7 55.2,25.6 55.3,25.6 55.5,25.5 55.6,25.5 55.8,25.5 56,25.5 
	56.2,25.4 56.4,25.4 56.6,25.4 56.8,25.4 57,25.4 57.2,25.4 57.3,25.4 57.5,25.4 57.5,25.3 57.3,25.3 57.2,25.3 57,25.3 56.8,25.3 
	56.6,25.3 56.4,25.3 56.2,25.4 56,25.4 55.8,25.4 55.6,25.4 55.5,25.5 55.3,25.5 55.2,25.5 55.1,25.6 55,25.6 54.9,25.7 55,25.7 "/>
<polygon class="st0" points="55.4,24.2 55.3,24.2 54.9,25.7 55,25.7 55.4,24.2 55.4,24.3 55.4,24.2 55.3,24.2 55.3,24.2 "/>
<polygon class="st0" points="58,23.9 58,23.9 57.8,23.9 57.6,23.9 57.4,23.9 57.3,23.9 57.1,23.9 56.9,23.9 56.7,23.9 56.6,23.9 
	56.4,23.9 56.2,24 56.1,24 55.9,24 55.8,24 55.6,24.1 55.5,24.1 55.4,24.2 55.4,24.3 55.5,24.2 55.7,24.2 55.8,24.1 55.9,24.1 
	56.1,24.1 56.2,24 56.4,24 56.6,24 56.7,24 56.9,24 57.1,24 57.3,24 57.4,24 57.6,24 57.8,24 58,24 58,24 "/>
<polygon class="st0" points="60.1,26 60.1,26 60.2,25.7 60.2,25.5 60.1,25.3 60,25.1 60,24.9 59.8,24.7 59.7,24.6 59.5,24.4 
	59.4,24.3 59.2,24.2 59,24.1 58.8,24 58.6,24 58.4,24 58.2,23.9 58,23.9 58,24 58.2,24 58.4,24 58.6,24.1 58.8,24.1 59,24.2 
	59.1,24.3 59.3,24.4 59.5,24.5 59.6,24.6 59.8,24.8 59.9,24.9 60,25.1 60,25.3 60.1,25.5 60.1,25.7 60,26 60,26 "/>
<polygon class="st0" points="59.5,29.2 59.5,29.2 60.1,26 60,26 59.4,29.2 59.4,29.2 "/>
<polygon class="st4" points="58,27.6 58,27.6 58,27.5 57.9,27.5 57.9,27.5 57.8,27.5 57.7,27.5 57.6,27.5 57.5,27.5 57.4,27.5 
	57.3,27.5 57.2,27.5 57.1,27.5 57.1,27.6 57,27.6 56.9,27.6 56.8,27.6 56.8,27.6 56.7,27.6 56.7,27.6 56.6,27.6 56.5,27.7 
	56.5,27.7 56.4,27.8 56.3,27.8 56.2,27.9 56.1,28 56.1,28 56,28.1 56,28.2 55.9,28.3 55.9,28.4 55.9,28.5 55.9,28.7 55.9,28.8 
	55.9,28.9 56,29 56.1,29.1 56.2,29.1 56.3,29.2 56.4,29.2 56.6,29.2 56.8,29.1 56.9,29.1 57.1,29.1 57.2,29 57.3,29 57.4,28.9 
	57.5,28.8 57.6,28.8 57.7,28.7 57.7,28.6 57.8,28.5 57.8,28.5 57.9,28.4 57.9,28.3 57.9,28.3 57.9,28.1 58,27.9 58,27.7 "/>
<polygon class="st0" points="59.9,30.5 61.6,30.5 61.6,30.5 62.2,27.1 62.3,26.9 62.3,26.8 62.3,26.7 62.4,26.5 62.4,26.4 
	62.5,26.3 62.6,26.2 62.7,26 62.8,25.9 62.9,25.8 63.1,25.8 63.2,25.7 63.4,25.6 63.6,25.6 63.8,25.5 64,25.5 64.1,25.5 64.2,25.5 
	64.2,25.5 64.2,25.5 64.5,24 64.3,24 64.1,24 64,24 63.8,24 63.7,24.1 63.6,24.2 63.4,24.2 63.3,24.3 63.2,24.4 63.1,24.5 63,24.6 
	62.9,24.7 62.8,24.8 62.7,24.9 62.7,25 62.6,25.1 62.8,24 61.1,24 "/>
<polyline class="st3" points="59.9,30.5 61.6,30.5 61.6,30.5 62.2,27.1 62.2,27.1 62.3,26.9 62.3,26.8 62.3,26.7 62.4,26.5 
	62.4,26.4 62.5,26.3 62.6,26.2 62.7,26 62.8,25.9 62.9,25.8 63.1,25.8 63.2,25.7 63.4,25.6 63.6,25.6 63.8,25.5 64,25.5 64,25.5 
	64.1,25.5 64.2,25.5 64.2,25.5 64.2,25.5 64.5,24 64.5,24 64.3,24 64.1,24 64,24 63.8,24 63.7,24.1 63.6,24.2 63.4,24.2 63.3,24.3 
	63.2,24.4 63.1,24.5 63,24.6 62.9,24.7 62.8,24.8 62.7,24.9 62.7,25 62.6,25.1 62.8,24 61.1,24 59.9,30.5 59.9,30.5 "/>
<polygon class="st0" points="43.9,30.5 45.6,30.5 45.6,30.5 46.2,27.1 46.2,26.9 46.2,26.8 46.3,26.7 46.3,26.6 46.4,26.4 
	46.4,26.3 46.5,26.2 46.6,26.1 46.7,26 46.8,25.9 46.9,25.8 47.1,25.8 47.3,25.7 47.4,25.7 47.6,25.7 47.9,25.6 47.9,25.6 
	47.9,25.6 48,25.6 48,25.6 48,25.7 48,25.7 48,25.7 48,25.7 48.1,25.6 48.1,25.6 48.1,25.5 48.1,25.3 48.2,25.2 48.2,25 48.3,24.8 
	48.3,24.7 48.4,24.5 48.4,24.4 48.5,24.3 48.6,24.2 48.6,24.1 48.6,24 48.7,24 48.7,24 48.7,24 48.7,24 48.6,24 48.6,24 48.6,24 
	48.5,24 48.5,24 48.4,24 48.2,24 48.1,24 47.9,24 47.8,24 47.6,24.1 47.5,24.2 47.4,24.2 47.3,24.3 47.2,24.4 47.1,24.5 47,24.5 
	46.9,24.7 46.8,24.8 46.7,24.9 46.6,25 46.5,25.1 46.7,24 45,24 "/>
<polyline class="st3" points="43.9,30.5 45.6,30.5 45.6,30.5 46.2,27.1 46.2,27.1 46.2,26.9 46.2,26.8 46.3,26.7 46.3,26.6 
	46.4,26.4 46.4,26.3 46.5,26.2 46.6,26.1 46.7,26 46.8,25.9 46.9,25.8 47.1,25.8 47.3,25.7 47.4,25.7 47.6,25.7 47.9,25.6 
	47.9,25.6 47.9,25.6 47.9,25.6 48,25.6 48,25.6 48,25.7 48,25.7 48,25.7 48,25.7 48,25.7 48.1,25.6 48.1,25.6 48.1,25.5 48.1,25.3 
	48.2,25.2 48.2,25 48.3,24.8 48.3,24.7 48.3,24.7 48.4,24.5 48.4,24.4 48.5,24.3 48.6,24.2 48.6,24.1 48.6,24 48.7,24 48.7,24 
	48.7,24 48.7,24 48.7,24 48.6,24 48.6,24 48.6,24 48.5,24 48.5,24 48.4,24 48.4,24 48.2,24 48.1,24 47.9,24 47.8,24 47.6,24.1 
	47.5,24.2 47.4,24.2 47.3,24.3 47.2,24.4 47.1,24.5 47,24.5 46.9,24.7 46.8,24.8 46.7,24.9 46.6,25 46.5,25.1 46.7,24 45,24 
	43.9,30.5 43.9,30.5 "/>
</svg>
