<?xml version="1.0" encoding="UTF-8"?>
<!-- Generator: Adobe Illustrator 21.1.0, SVG Export Plug-In . SVG Version: 6.00 Build 0)  -->
<svg version="1.1" id="Layer_1" xmlns="http://www.w3.org/2000/svg" xmlns:xlink="http://www.w3.org/1999/xlink" x="0px" y="0px" width="86px" height="52px" viewBox="0 0 86 52" style="enable-background:new 0 0 86 52;" xml:space="preserve">
<style type="text/css">
	.st0{fill:#FFFFFF;}
	.st1{fill:#006848;}
	.st2{fill:url(#SVGID_1_);}
</style>
<path class="st0" d="M2,0h82c1.1,0,2,0.9,2,2v48c0,1.1-0.9,2-2,2H2c-1.1,0-2-0.9-2-2V2C0,0.9,0.9,0,2,0z"/>
<path class="st1" d="M23.7,18.5l-2.5,8.7h-0.4l-2.5-8.7C17.9,17,16.5,16,15,16H9v19h6V23.8h0.4L18.9,35h4.3l3.4-11.2H27V35h6V16h-6  C25.5,16,24.1,17,23.7,18.5z"/>
<path id="Shape_2_copy" class="st1" d="M46.7,18l-4.3,9.2H42V16h-6v19h5.1c1.3,0,2.6-0.8,3.1-2l4.3-9.2H49V35h6V16h-5.1  C48.5,16,47.3,16.8,46.7,18z"/>
<path id="Shape_2_copy_2" class="st1" d="M58,35h6v-5.6h6.1c3,0.1,5.7-1.6,6.9-4.3H58V35z"/>
<linearGradient id="SVGID_1_" gradientUnits="userSpaceOnUse" x1="-529.8965" y1="454.3847" x2="-529.5538" y2="454.3847" gradientTransform="matrix(-58 0 0 145.038 -30657 -65883.0469)">
	<stop offset="0" style="stop-color:#1E5CD8"/>
	<stop offset="1" style="stop-color:#02AFFF"/>
</linearGradient>
<path class="st2" d="M70.2,16c1.8,0,3.4,0.7,4.6,1.8c1.4,1.2,2.2,3,2.2,5c0,0.4,0,0.8-0.1,1.2H65.5c-3.8,0-7.1-2.5-8.2-6  c0,0,0-0.1,0-0.1c0-0.1-0.1-0.2-0.1-0.3C57.1,17,57,16.5,57,16H70.2z"/>
</svg>