<?xml version="1.0" encoding="utf-8"?>
<!-- Generator: Adobe Illustrator 21.1.0, SVG Export Plug-In . SVG Version: 6.00 Build 0)  -->
<svg version="1.1" id="Layer_1" xmlns="http://www.w3.org/2000/svg" xmlns:xlink="http://www.w3.org/1999/xlink" x="0px" y="0px"
	 width="86px" height="52px" viewBox="0 0 86 52" style="enable-background:new 0 0 86 52;" xml:space="preserve">
<style type="text/css">
	.st0{fill:#FFFFFF;}
	.st1{enable-background:new    ;}
	.st2{fill:#005BAC;}
	.st3{fill:#F6AC1D;}
</style>
<path class="st0" d="M84,52H2c-1.1,0-2-0.9-2-2V2c0-1.1,0.9-2,2-2h82c1.1,0,2,0.9,2,2v48C86,51.1,85.1,52,84,52z"/>
<g id="形状_1_3_" class="st1">
	<g id="形状_1">
		<g>
			<path class="st2" d="M34.3,15.4l-3.6,22.2h5.7L40,15.4H34.3L34.3,15.4z M25.9,15.4l-5.4,15.3l-0.6-3.3l0,0l-0.2-0.7
				c-0.7-1.4-2.2-4.2-5.1-6.5c-0.9-0.7-1.7-1.3-2.5-1.8l4.9,19.3H23l9.1-22.2H25.9L25.9,15.4z M48.2,21.6c0-2.5,5.6-2.2,8-0.8L57,16
				c0,0-2.5-1-5.1-1c-2.8,0-9.6,1.2-9.6,7.4c0,5.8,7.9,5.8,7.9,8.8s-7.1,2.5-9.4,0.6l-0.9,5c0,0,2.6,1.2,6.4,1.2s9.8-2.1,9.8-7.6
				C56.1,24.6,48.2,24.1,48.2,21.6z M71.4,15.4h-4.6c-2.1,0-2.6,1.6-2.6,1.6l-8.5,20.6h5.9l1.2-3.3h7.2l0.7,3.3H76L71.4,15.4z
				 M64.5,29.8l3-8.3l1.7,8.3H64.5z"/>
		</g>
	</g>
</g>
<g id="形状_1_2_" class="st1">
	<g id="形状_1_1_">
		<g>
			<path class="st3" d="M18,17.5c0,0-0.2-2-2.7-2H6.1L6,15.9c0,0,4.4,0.9,8.6,4.3c4,3.3,5.3,7.3,5.3,7.3L18,17.5z"/>
		</g>
	</g>
</g>
</svg>
